<?xml version="1.0" encoding="utf-8"?>
<svg xmlns="http://www.w3.org/2000/svg">
<symbol id="back" viewBox="0 0 477.175 477.175"><path d="M145.188 238.575l215.5-215.5c5.3-5.3 5.3-13.8 0-19.1s-13.8-5.3-19.1 0l-225.1 225.1c-5.3 5.3-5.3 13.8 0 19.1l225.1 225c2.6 2.6 6.1 4 9.5 4s6.9-1.3 9.5-4c5.3-5.3 5.3-13.8 0-19.1l-215.4-215.5z"/>
</symbol>
<symbol id="download" viewBox="0 0 59 59"><path d="M20.187 28.313a.999.999 0 1 0-1.414 1.414l9.979 9.979c.186.189.44.294.706.294.007 0 .014-.004.021-.004.007 0 .013.004.021.004a.981.981 0 0 0 .795-.423l9.891-9.891a.999.999 0 1 0-1.414-1.414L30.5 36.544V1a1 1 0 1 0-2 0v35.628l-8.313-8.315z"/><path d="M36.5 16a1 1 0 1 0 0 2h13v39h-40V18h13a1 1 0 1 0 0-2h-15v43h44V16h-15z"/>
</symbol>
<symbol id="like-filled" viewBox="0 0 50 50"><path d="M24.85 10.126c2.018-4.783 6.628-8.125 11.99-8.125 7.223 0 12.425 6.179 13.079 13.543 0 0 .353 1.828-.424 5.119-1.058 4.482-3.545 8.464-6.898 11.503L24.85 48 7.402 32.165c-3.353-3.038-5.84-7.021-6.898-11.503-.777-3.291-.424-5.119-.424-5.119C.734 8.179 5.936 2 13.159 2c5.363 0 9.673 3.343 11.691 8.126z" fill="#d75a4a"/>
</symbol>
<symbol id="like" viewBox="0 0 51.997 51.997"><path d="M51.911 16.242c-.759-8.354-6.672-14.415-14.072-14.415-4.93 0-9.444 2.653-11.984 6.905-2.517-4.307-6.846-6.906-11.697-6.906C6.759 1.826.845 7.887.087 16.241c-.06.369-.306 2.311.442 5.478 1.078 4.568 3.568 8.723 7.199 12.013l18.115 16.439 18.426-16.438c3.631-3.291 6.121-7.445 7.199-12.014.748-3.166.502-5.108.443-5.477zm-2.39 5.019c-.984 4.172-3.265 7.973-6.59 10.985L25.855 47.481 9.072 32.25c-3.331-3.018-5.611-6.818-6.596-10.99-.708-2.997-.417-4.69-.416-4.701l.015-.101c.65-7.319 5.731-12.632 12.083-12.632 4.687 0 8.813 2.88 10.771 7.515l.921 2.183.921-2.183c1.927-4.564 6.271-7.514 11.069-7.514 6.351 0 11.433 5.313 12.096 12.727.002.016.293 1.71-.415 4.707z"/>
</symbol>
<symbol id="next" viewBox="0 0 477.175 477.175"><path d="M360.731 229.075l-225.1-225.1c-5.3-5.3-13.8-5.3-19.1 0s-5.3 13.8 0 19.1l215.5 215.5-215.5 215.5c-5.3 5.3-5.3 13.8 0 19.1 2.6 2.6 6.1 4 9.5 4 3.4 0 6.9-1.3 9.5-4l225.1-225.1c5.3-5.2 5.3-13.8.1-19z"/>
</symbol>
<symbol id="play-button" viewBox="0 0 41.999 41.999"><path d="M36.068 20.176l-29-20A1 1 0 1 0 5.5.999v40a1 1 0 0 0 1.568.823l29-20a.999.999 0 0 0 0-1.646zM7.5 39.095V2.904L33.739 21 7.5 39.095z"/>
</symbol>
<symbol id="sprite">
<symbol id="back" viewBox="0 0 477.175 477.175"><path d="M145.2 238.6L360.7 23c5.3-5.3 5.3-13.8 0-19.1s-13.8-5.3-19.1 0L116.5 229a13.5 13.5 0 0 0 0 19.2l225 225c2.7 2.6 6.2 4 9.6 4s6.9-1.3 9.5-4a13.5 13.5 0 0 0 0-19.1L145.2 238.6z"/>
</symbol>
<symbol id="download" viewBox="0 0 59 59"><path d="M20.2 28.3a1 1 0 1 0-1.4 1.4l10 10c.1.2.4.3.7.3.3 0 .6-.2.8-.4l9.9-10a1 1 0 1 0-1.4-1.3l-8.3 8.2V1a1 1 0 1 0-2 0v35.6l-8.3-8.3z"/><path d="M36.5 16a1 1 0 1 0 0 2h13v39h-40V18h13a1 1 0 1 0 0-2h-15v43h44V16h-15z"/>
</symbol>
<symbol id="like-filled" viewBox="0 0 50 50"><path d="M24.9 10.1a13 13 0 0 1 12-8.1c7.2 0 12.4 6.2 13 13.5 0 0 .4 1.9-.4 5.2-1 4.4-3.5 8.4-6.9 11.5L24.8 48 7.5 32.2c-3.4-3-5.8-7-6.9-11.5-.8-3.3-.4-5.2-.4-5.2C.7 8.2 5.9 2 13 2c5.4 0 9.7 3.3 11.8 8.1z" fill="#d75a4a"/>
</symbol>
<symbol id="like" viewBox="0 0 51.997 51.997"><path d="M52 16.2C51.1 8 45.1 1.8 37.7 1.8a14 14 0 0 0-12 7c-2.5-4.4-6.8-7-11.6-7C6.8 1.8.8 7.8 0 16.2c0 .4-.3 2.4.4 5.5 1.1 4.6 3.6 8.7 7.2 12l18.1 16.5 18.5-16.5c3.6-3.3 6-7.4 7.2-12 .7-3.1.5-5 .4-5.5zm-2.5 5a21 21 0 0 1-6.6 11L26 47.5 9 32.2a21 21 0 0 1-6.6-11c-.7-3-.4-4.6-.4-4.6v-.1C2.7 9 7.8 3.8 14 3.8c4.7 0 8.9 3 10.8 7.5l1 2.2.9-2.2a12 12 0 0 1 11-7.5c6.4 0 11.5 5.3 12.1 12.8 0 0 .3 1.7-.4 4.7z"/>
</symbol>
<symbol id="next" viewBox="0 0 477.175 477.175"><path d="M360.7 229L135.7 4c-5.4-5.3-13.9-5.3-19.2 0s-5.3 13.8 0 19L332 238.7 116.5 454a13.6 13.6 0 1 0 9.5 23.1c3.4 0 7-1.3 9.5-4L360.6 248c5.3-5.2 5.3-13.8.1-19z"/>
</symbol>
<symbol id="play-button" viewBox="0 0 41.999 41.999"><path d="M36 20.2L7 .2a1 1 0 0 0-1.5.8v40a1 1 0 0 0 1.6.8l29-20a1 1 0 0 0 0-1.6zM7.6 39V2.9L33.7 21 7.5 39z"/>
</symbol>
<symbol id="sprite">
<symbol id="back" viewBox="0 0 477.175 477.175"><path d="M145.2 238.6L360.7 23c5.3-5.3 5.3-13.8 0-19.1s-13.8-5.3-19.1 0L116.5 229a13.5 13.5 0 0 0 0 19.2l225 225c2.7 2.6 6.2 4 9.6 4s6.9-1.3 9.5-4a13.5 13.5 0 0 0 0-19.1L145.2 238.6z"/>
</symbol>
<symbol id="download" viewBox="0 0 59 59"><path d="M20.2 28.3a1 1 0 1 0-1.4 1.4l10 10c.1.2.4.3.7.3.3 0 .6-.2.8-.4l9.9-10a1 1 0 1 0-1.4-1.3l-8.3 8.2V1a1 1 0 1 0-2 0v35.6l-8.3-8.3z"/><path d="M36.5 16a1 1 0 1 0 0 2h13v39h-40V18h13a1 1 0 1 0 0-2h-15v43h44V16h-15z"/>
</symbol>
<symbol id="like-filled" viewBox="0 0 50 50"><path d="M24.9 10.1a13 13 0 0 1 12-8.1c7.2 0 12.4 6.2 13 13.5 0 0 .4 1.9-.4 5.2-1 4.4-3.5 8.4-6.9 11.5L24.8 48 7.5 32.2c-3.4-3-5.8-7-6.9-11.5-.8-3.3-.4-5.2-.4-5.2C.7 8.2 5.9 2 13 2c5.4 0 9.7 3.3 11.8 8.1z" fill="#d75a4a"/>
</symbol>
<symbol id="like" viewBox="0 0 51.997 51.997"><path d="M52 16.2C51.1 8 45.1 1.8 37.7 1.8a14 14 0 0 0-12 7c-2.5-4.4-6.8-7-11.6-7C6.8 1.8.8 7.8 0 16.2c0 .4-.3 2.4.4 5.5 1.1 4.6 3.6 8.7 7.2 12l18.1 16.5 18.5-16.5c3.6-3.3 6-7.4 7.2-12 .7-3.1.5-5 .4-5.5zm-2.5 5a21 21 0 0 1-6.6 11L26 47.5 9 32.2a21 21 0 0 1-6.6-11c-.7-3-.4-4.6-.4-4.6v-.1C2.7 9 7.8 3.8 14 3.8c4.7 0 8.9 3 10.8 7.5l1 2.2.9-2.2a12 12 0 0 1 11-7.5c6.4 0 11.5 5.3 12.1 12.8 0 0 .3 1.7-.4 4.7z"/>
</symbol>
<symbol id="next" viewBox="0 0 477.175 477.175"><path d="M360.7 229L135.7 4c-5.4-5.3-13.9-5.3-19.2 0s-5.3 13.8 0 19L332 238.7 116.5 454a13.6 13.6 0 1 0 9.5 23.1c3.4 0 7-1.3 9.5-4L360.6 248c5.3-5.2 5.3-13.8.1-19z"/>
</symbol>
<symbol id="play-button" viewBox="0 0 41.999 41.999"><path d="M36 20.2L7 .2a1 1 0 0 0-1.5.8v40a1 1 0 0 0 1.6.8l29-20a1 1 0 0 0 0-1.6zM7.6 39V2.9L33.7 21 7.5 39z"/>
</symbol>
<symbol id="upload" viewBox="0 0 58.999 58.999"><path d="M19.5 12c.2 0 .5 0 .7-.3l8.3-8.3V39a1 1 0 1 0 2 0V3.4l8.3 8.3a1 1 0 1 0 1.4-1.4l-10-10L30 0a1 1 0 0 0-1.1.2l-10 10a1 1 0 0 0 .7 1.7z"/><path d="M36.5 16a1 1 0 1 0 0 2h13v39h-40V18h13a1 1 0 1 0 0-2h-15v43h44V16h-15z"/>
</symbol>
</symbol>
<symbol id="upload" viewBox="0 0 58.999 58.999"><path d="M19.5 12c.2 0 .5 0 .7-.3l8.3-8.3V39a1 1 0 1 0 2 0V3.4l8.3 8.3a1 1 0 1 0 1.4-1.4l-10-10L30 0a1 1 0 0 0-1.1.2l-10 10a1 1 0 0 0 .7 1.7z"/><path d="M36.5 16a1 1 0 1 0 0 2h13v39h-40V18h13a1 1 0 1 0 0-2h-15v43h44V16h-15z"/>
</symbol>
</symbol>
<symbol id="upload" viewBox="0 0 58.999 58.999"><path d="M19.479 12.019a.997.997 0 0 0 .707-.293l8.313-8.313v35.586a1 1 0 1 0 2 0V3.413l8.272 8.272a.999.999 0 1 0 1.414-1.414L30.207.293a1.001 1.001 0 0 0-1.417 0L18.772 10.312a.999.999 0 0 0 .707 1.707z"/><path d="M36.499 15.999a1 1 0 1 0 0 2h13v39h-40v-39h13a1 1 0 1 0 0-2h-15v43h44v-43h-15z"/>
</symbol></svg>